<svg width="188" height="160" viewBox="0 0 188 160" fill="none" xmlns="http://www.w3.org/2000/svg">
<path d="M89.6889 7.33797C91.6216 4.0483 96.3784 4.04829 98.311 7.33797L183.575 152.467C185.533 155.8 183.129 160 179.263 160H8.73654C4.87067 160 2.46724 155.8 4.42549 152.467L89.6889 7.33797Z" fill="url(#paint0_linear)"/>
<path d="M113.625 138.734C113.25 137.516 112.922 135.922 112.641 133.953C112.359 131.891 112.078 129.688 111.797 127.344C111.516 124.906 111.188 122.469 110.812 120.031C110.531 117.5 110.203 115.109 109.828 112.859C109.547 110.609 109.125 108.641 108.562 106.953C108.094 105.172 107.531 103.859 106.875 103.016H105.469C104.812 103.016 104.109 103.016 103.359 103.016C102.703 103.016 102.047 103.016 101.391 103.016H99.9844C98.0156 103.016 96.2344 103.016 94.6406 103.016C93.0469 103.016 91.5 103.156 90 103.438C88.5 103.625 86.9062 103.906 85.2188 104.281C83.5312 104.562 81.5625 105.078 79.3125 105.828C78.75 106.016 78.2344 106.531 77.7656 107.375C77.2969 108.219 76.875 109.156 76.5 110.188C76.2188 111.125 75.9375 112.062 75.6562 113C75.4688 113.938 75.375 114.734 75.375 115.391C75.375 116.047 75.2812 117.219 75.0938 118.906C75 120.594 74.8594 122.375 74.6719 124.25C74.5781 126.125 74.4375 127.953 74.25 129.734C74.0625 131.422 73.9219 132.547 73.8281 133.109C73.1719 134.234 72.2344 135.219 71.0156 136.062C69.7969 136.906 68.4844 137.328 67.0781 137.328C65.8594 137.328 65.0625 137.047 64.6875 136.484C64.3125 135.922 64.125 135.031 64.125 133.812C64.125 133.719 64.125 133.391 64.125 132.828C64.2188 132.266 64.2656 131.891 64.2656 131.703C65.6719 118.953 68.1562 106.391 71.7188 94.0156C75.2812 81.6406 79.6875 69.5469 84.9375 57.7344C84.9375 57.6406 85.0312 57.4531 85.2188 57.1719C85.5 56.8906 85.7812 56.6094 86.0625 56.3281C86.4375 56.0469 86.7656 55.8125 87.0469 55.625C87.3281 55.3438 87.5156 55.2031 87.6094 55.2031C87.7969 55.2031 87.9375 55.1562 88.0312 55.0625C88.125 55.0625 88.1719 55.0625 88.1719 55.0625L88.3125 54.9219C90.4688 54.9219 92.5312 55.7187 94.5 57.3125C96.5625 58.8125 98.5312 60.7344 100.406 63.0781C102.281 65.4219 103.969 68.0938 105.469 71.0938C106.969 74 108.281 76.8594 109.406 79.6719C110.625 82.4844 111.562 85.1562 112.219 87.6875C112.969 90.125 113.438 92.0469 113.625 93.4531C114.656 94.0156 115.688 94.4844 116.719 94.8594C117.844 95.1406 118.922 95.5156 119.953 95.9844C120.984 96.3594 121.875 96.875 122.625 97.5312C123.469 98.0938 124.172 99.0312 124.734 100.344C124.734 100.438 124.688 100.625 124.594 100.906C124.594 101.188 124.5 101.469 124.312 101.75C124.125 102.031 123.938 102.312 123.75 102.594C123.656 102.875 123.516 103.016 123.328 103.016C123.141 103.109 122.672 103.25 121.922 103.438C121.266 103.625 120.562 103.812 119.812 104C119.156 104.094 118.453 104.188 117.703 104.281C117.047 104.375 116.625 104.422 116.438 104.422V105.125C116.438 109.438 116.812 113.938 117.562 118.625C118.312 123.219 119.297 127.578 120.516 131.703C120.516 131.797 120.562 131.984 120.656 132.266C120.844 132.547 121.031 132.828 121.219 133.109C121.406 133.391 121.547 133.719 121.641 134.094C121.734 134.375 121.828 134.516 121.922 134.516V135.219C121.922 136.812 121.312 138.031 120.094 138.875C118.969 139.719 117.75 140.141 116.438 140.141C115.781 140.141 115.219 140.094 114.75 140C114.281 139.812 113.906 139.391 113.625 138.734ZM80.8594 96.5469C82.6406 96.5469 84.7031 96.4531 87.0469 96.2656C89.4844 95.9844 91.875 95.6562 94.2188 95.2812C96.6562 94.9062 98.9062 94.5781 100.969 94.2969C103.031 93.9219 104.531 93.6406 105.469 93.4531C105.375 92.8906 105.047 91.8125 104.484 90.2188C104.016 88.625 103.5 86.9375 102.938 85.1562C102.375 83.375 101.812 81.7344 101.25 80.2344C100.688 78.6406 100.266 77.5625 99.9844 77C99.7969 76.625 99.375 75.9688 98.7188 75.0312C98.1562 74 97.4531 73.0156 96.6094 72.0781C95.8594 71.1406 95.0156 70.3438 94.0781 69.6875C93.2344 68.9375 92.4844 68.5625 91.8281 68.5625C91.2656 68.5625 90.75 68.6094 90.2812 68.7031C89.8125 68.7969 89.3906 69.3125 89.0156 70.25L80.8594 93.4531V96.5469Z" fill="#CF7FD0"/>
<defs>
<linearGradient id="paint0_linear" x1="66.795" y1="90.5578" x2="85.6177" y2="133.531" gradientUnits="userSpaceOnUse">
<stop stop-color="#AA2DAC"/>
<stop offset="1" stop-color="#F01AF4"/>
</linearGradient>
</defs>
</svg>
