<svg width="260" height="44" viewBox="0 0 260 44" fill="none" xmlns="http://www.w3.org/2000/svg">
<path d="M25.3125 42.3672C25.125 41.7578 24.9609 40.9609 24.8203 39.9766C24.6797 38.9453 24.5391 37.8438 24.3984 36.6719C24.2578 35.4531 24.0938 34.2344 23.9062 33.0156C23.7656 31.75 23.6016 30.5547 23.4141 29.4297C23.2734 28.3047 23.0625 27.3203 22.7812 26.4766C22.5469 25.5859 22.2656 24.9297 21.9375 24.5078H21.2344C20.9062 24.5078 20.5547 24.5078 20.1797 24.5078C19.8516 24.5078 19.5234 24.5078 19.1953 24.5078H18.4922C17.5078 24.5078 16.6172 24.5078 15.8203 24.5078C15.0234 24.5078 14.25 24.5781 13.5 24.7188C12.75 24.8125 11.9531 24.9531 11.1094 25.1406C10.2656 25.2812 9.28125 25.5391 8.15625 25.9141C7.875 26.0078 7.61719 26.2656 7.38281 26.6875C7.14844 27.1094 6.9375 27.5781 6.75 28.0938C6.60938 28.5625 6.46875 29.0312 6.32812 29.5C6.23438 29.9688 6.1875 30.3672 6.1875 30.6953C6.1875 31.0234 6.14062 31.6094 6.04688 32.4531C6 33.2969 5.92969 34.1875 5.83594 35.125C5.78906 36.0625 5.71875 36.9766 5.625 37.8672C5.53125 38.7109 5.46094 39.2734 5.41406 39.5547C5.08594 40.1172 4.61719 40.6094 4.00781 41.0312C3.39844 41.4531 2.74219 41.6641 2.03906 41.6641C1.42969 41.6641 1.03125 41.5234 0.84375 41.2422C0.65625 40.9609 0.5625 40.5156 0.5625 39.9062C0.5625 39.8594 0.5625 39.6953 0.5625 39.4141C0.609375 39.1328 0.632812 38.9453 0.632812 38.8516C1.33594 32.4766 2.57812 26.1953 4.35938 20.0078C6.14062 13.8203 8.34375 7.77344 10.9688 1.86719C10.9688 1.82031 11.0156 1.72656 11.1094 1.58594C11.25 1.44531 11.3906 1.30469 11.5312 1.16406C11.7188 1.02344 11.8828 0.90625 12.0234 0.8125C12.1641 0.671875 12.2578 0.601562 12.3047 0.601562C12.3984 0.601562 12.4688 0.578125 12.5156 0.53125C12.5625 0.53125 12.5859 0.53125 12.5859 0.53125L12.6562 0.460938C13.7344 0.460938 14.7656 0.859375 15.75 1.65625C16.7812 2.40625 17.7656 3.36719 18.7031 4.53906C19.6406 5.71094 20.4844 7.04688 21.2344 8.54688C21.9844 10 22.6406 11.4297 23.2031 12.8359C23.8125 14.2422 24.2812 15.5781 24.6094 16.8438C24.9844 18.0625 25.2188 19.0234 25.3125 19.7266C25.8281 20.0078 26.3438 20.2422 26.8594 20.4297C27.4219 20.5703 27.9609 20.7578 28.4766 20.9922C28.9922 21.1797 29.4375 21.4375 29.8125 21.7656C30.2344 22.0469 30.5859 22.5156 30.8672 23.1719C30.8672 23.2188 30.8438 23.3125 30.7969 23.4531C30.7969 23.5938 30.75 23.7344 30.6562 23.875C30.5625 24.0156 30.4688 24.1562 30.375 24.2969C30.3281 24.4375 30.2578 24.5078 30.1641 24.5078C30.0703 24.5547 29.8359 24.625 29.4609 24.7188C29.1328 24.8125 28.7812 24.9062 28.4062 25C28.0781 25.0469 27.7266 25.0938 27.3516 25.1406C27.0234 25.1875 26.8125 25.2109 26.7188 25.2109V25.5625C26.7188 27.7188 26.9062 29.9688 27.2812 32.3125C27.6562 34.6094 28.1484 36.7891 28.7578 38.8516C28.7578 38.8984 28.7812 38.9922 28.8281 39.1328C28.9219 39.2734 29.0156 39.4141 29.1094 39.5547C29.2031 39.6953 29.2734 39.8594 29.3203 40.0469C29.3672 40.1875 29.4141 40.2578 29.4609 40.2578V40.6094C29.4609 41.4062 29.1562 42.0156 28.5469 42.4375C27.9844 42.8594 27.375 43.0703 26.7188 43.0703C26.3906 43.0703 26.1094 43.0469 25.875 43C25.6406 42.9062 25.4531 42.6953 25.3125 42.3672ZM8.92969 21.2734C9.82031 21.2734 10.8516 21.2266 12.0234 21.1328C13.2422 20.9922 14.4375 20.8281 15.6094 20.6406C16.8281 20.4531 17.9531 20.2891 18.9844 20.1484C20.0156 19.9609 20.7656 19.8203 21.2344 19.7266C21.1875 19.4453 21.0234 18.9062 20.7422 18.1094C20.5078 17.3125 20.25 16.4688 19.9688 15.5781C19.6875 14.6875 19.4062 13.8672 19.125 13.1172C18.8438 12.3203 18.6328 11.7812 18.4922 11.5C18.3984 11.3125 18.1875 10.9844 17.8594 10.5156C17.5781 10 17.2266 9.50781 16.8047 9.03906C16.4297 8.57031 16.0078 8.17188 15.5391 7.84375C15.1172 7.46875 14.7422 7.28125 14.4141 7.28125C14.1328 7.28125 13.875 7.30469 13.6406 7.35156C13.4062 7.39844 13.1953 7.65625 13.0078 8.125L8.92969 19.7266V21.2734ZM49.8516 27.8828C48.2109 27.8828 46.7578 28.1875 45.4922 28.7969C44.2734 29.3594 43.1719 30.1094 42.1875 31.0469C41.2031 31.9844 40.3828 32.9922 39.7266 34.0703C39.0703 35.1016 38.4844 36.0859 37.9688 37.0234C37.5 37.9609 37.125 38.7344 36.8438 39.3438C36.6094 39.9531 36.4453 40.2578 36.3516 40.2578C35.0859 40.2578 34.1953 39.9297 33.6797 39.2734C33.1641 38.6172 32.8359 37.8203 32.6953 36.8828C32.5547 35.8984 32.5312 34.8906 32.625 33.8594C32.7656 32.7812 32.8359 31.8438 32.8359 31.0469V29.8516C32.8359 29.2891 32.8359 28.7031 32.8359 28.0938C32.8828 27.4844 32.9062 26.9219 32.9062 26.4062V25.2109C33.0469 24.8359 33.2344 24.625 33.4688 24.5781C33.7031 24.5312 33.9609 24.5078 34.2422 24.5078C34.6641 24.5078 35.0156 24.7656 35.2969 25.2812C35.5781 25.75 35.8359 26.3359 36.0703 27.0391C36.3047 27.7422 36.4922 28.4453 36.6328 29.1484C36.7734 29.8047 36.8906 30.3203 36.9844 30.6953C37.5469 30.6016 38.0625 30.3672 38.5312 29.9922C39 29.6172 39.4688 29.1719 39.9375 28.6562C40.4531 28.1406 40.9922 27.6016 41.5547 27.0391C42.1172 26.4766 42.7734 25.9609 43.5234 25.4922C44.2734 24.9766 45.1406 24.5547 46.125 24.2266C47.1562 23.8984 48.3281 23.7344 49.6406 23.7344C52.2656 23.7344 54.4219 24.3203 56.1094 25.4922C57.7969 26.6172 59.0859 28.1172 59.9766 29.9922C60.9141 31.8203 61.5469 33.9062 61.875 36.25C62.2031 38.5469 62.3672 40.8906 62.3672 43.2812C60.9609 43.2812 59.8594 43.0703 59.0625 42.6484C58.3125 42.1797 57.7734 41.5938 57.4453 40.8906C57.1172 40.1406 56.9297 39.3203 56.8828 38.4297C56.8359 37.4922 56.8125 36.5547 56.8125 35.6172C56.8125 34.6328 56.7422 33.6719 56.6016 32.7344C56.5078 31.7969 56.2266 30.9766 55.7578 30.2734C55.3359 29.5703 54.6562 29.0078 53.7188 28.5859C52.8281 28.1172 51.5391 27.8828 49.8516 27.8828ZM64.3359 30.625C64.3359 29.0312 64.7812 27.4844 65.6719 25.9844C66.5625 24.4844 67.6875 23.1719 69.0469 22.0469C70.4531 20.9219 71.9766 20.0312 73.6172 19.375C75.3047 18.7188 76.8984 18.3906 78.3984 18.3906C79.6172 18.3906 80.8125 18.5547 81.9844 18.8828C83.2031 19.1641 84.2812 19.6328 85.2188 20.2891C86.1562 20.9453 86.9062 21.7656 87.4688 22.75C88.0781 23.6875 88.3828 24.8125 88.3828 26.125C88.3828 26.7344 88.3359 27.2266 88.2422 27.6016C88.1953 27.9297 88.0547 28.2344 87.8203 28.5156C87.5859 28.75 87.2812 28.9844 86.9062 29.2188C86.5781 29.4062 86.1562 29.6641 85.6406 29.9922C85.3594 30.0391 84.9375 30.1562 84.375 30.3438C83.8125 30.4844 83.1562 30.6484 82.4062 30.8359C81.7031 31.0234 80.9531 31.2109 80.1562 31.3984C79.3594 31.5859 78.5859 31.7734 77.8359 31.9609C77.1328 32.1484 76.5 32.3125 75.9375 32.4531C75.375 32.5938 74.9531 32.6875 74.6719 32.7344C74.5312 32.7812 74.2266 32.8281 73.7578 32.875C73.2891 32.9219 72.7734 32.9922 72.2109 33.0859C71.6953 33.1328 71.2031 33.2031 70.7344 33.2969C70.2656 33.3438 69.9844 33.3906 69.8906 33.4375C69.75 33.4844 69.5859 33.6016 69.3984 33.7891C69.2578 33.9297 69.1875 34.0234 69.1875 34.0703C69.1875 35.0078 69.4453 35.8047 69.9609 36.4609C70.4766 37.0703 71.1328 37.5859 71.9297 38.0078C72.7266 38.4297 73.6172 38.7578 74.6016 38.9922C75.6328 39.1797 76.6406 39.3438 77.625 39.4844C78.6094 39.5781 79.5234 39.625 80.3672 39.625C81.2109 39.625 81.8906 39.625 82.4062 39.625C84.75 39.625 87.0469 39.5078 89.2969 39.2734C91.5469 38.9922 93.8438 38.8516 96.1875 38.8516V39.4141C96.1875 39.6953 96.1406 40 96.0469 40.3281C96 40.6094 95.9062 40.8906 95.7656 41.1719C95.625 41.4062 95.4375 41.5469 95.2031 41.5938C93.4219 41.9688 91.8281 42.2734 90.4219 42.5078C89.0625 42.6953 87.7734 42.8359 86.5547 42.9297C85.3359 42.9766 84.0703 43 82.7578 43C81.4453 43.0469 79.9922 43.0703 78.3984 43.0703H77.2031C76.6875 43.0703 76.125 43.0469 75.5156 43C74.9062 43 74.3203 43 73.7578 43H72.5625C71.1094 42.625 69.8438 42.0391 68.7656 41.2422C67.7344 40.3984 66.8906 39.4141 66.2344 38.2891C65.5781 37.1641 65.0859 35.9453 64.7578 34.6328C64.4766 33.3203 64.3359 31.9844 64.3359 30.625ZM80.0859 22.3281C79.4766 22.3281 78.7734 22.3984 77.9766 22.5391C77.2266 22.6328 76.4297 22.8203 75.5859 23.1016C74.7891 23.3359 73.9922 23.6641 73.1953 24.0859C72.3984 24.4609 71.6953 24.9297 71.0859 25.4922C70.4766 26.0078 69.9609 26.5938 69.5391 27.25C69.1641 27.9062 68.9766 28.6328 68.9766 29.4297H71.8594C72.8906 29.4297 73.9453 29.3828 75.0234 29.2891C76.1016 29.1953 77.1562 29.0547 78.1875 28.8672C79.2188 28.6328 80.1094 28.3047 80.8594 27.8828C81.6562 27.4141 82.2891 26.8281 82.7578 26.125C83.2734 25.4219 83.5312 24.5547 83.5312 23.5234V23.1719L82.8281 22.4688C82.7344 22.4688 82.5469 22.4688 82.2656 22.4688C82.0312 22.4219 81.7734 22.3984 81.4922 22.3984C81.2109 22.3516 80.9297 22.3281 80.6484 22.3281C80.4141 22.3281 80.2266 22.3281 80.0859 22.3281ZM98.5781 30.625C98.5781 29.0312 99.0234 27.4844 99.9141 25.9844C100.805 24.4844 101.93 23.1719 103.289 22.0469C104.695 20.9219 106.219 20.0312 107.859 19.375C109.547 18.7188 111.141 18.3906 112.641 18.3906C113.859 18.3906 115.055 18.5547 116.227 18.8828C117.445 19.1641 118.523 19.6328 119.461 20.2891C120.398 20.9453 121.148 21.7656 121.711 22.75C122.32 23.6875 122.625 24.8125 122.625 26.125C122.625 26.7344 122.578 27.2266 122.484 27.6016C122.438 27.9297 122.297 28.2344 122.062 28.5156C121.828 28.75 121.523 28.9844 121.148 29.2188C120.82 29.4062 120.398 29.6641 119.883 29.9922C119.602 30.0391 119.18 30.1562 118.617 30.3438C118.055 30.4844 117.398 30.6484 116.648 30.8359C115.945 31.0234 115.195 31.2109 114.398 31.3984C113.602 31.5859 112.828 31.7734 112.078 31.9609C111.375 32.1484 110.742 32.3125 110.18 32.4531C109.617 32.5938 109.195 32.6875 108.914 32.7344C108.773 32.7812 108.469 32.8281 108 32.875C107.531 32.9219 107.016 32.9922 106.453 33.0859C105.938 33.1328 105.445 33.2031 104.977 33.2969C104.508 33.3438 104.227 33.3906 104.133 33.4375C103.992 33.4844 103.828 33.6016 103.641 33.7891C103.5 33.9297 103.43 34.0234 103.43 34.0703C103.43 35.0078 103.688 35.8047 104.203 36.4609C104.719 37.0703 105.375 37.5859 106.172 38.0078C106.969 38.4297 107.859 38.7578 108.844 38.9922C109.875 39.1797 110.883 39.3438 111.867 39.4844C112.852 39.5781 113.766 39.625 114.609 39.625C115.453 39.625 116.133 39.625 116.648 39.625C118.992 39.625 121.289 39.5078 123.539 39.2734C125.789 38.9922 128.086 38.8516 130.43 38.8516V39.4141C130.43 39.6953 130.383 40 130.289 40.3281C130.242 40.6094 130.148 40.8906 130.008 41.1719C129.867 41.4062 129.68 41.5469 129.445 41.5938C127.664 41.9688 126.07 42.2734 124.664 42.5078C123.305 42.6953 122.016 42.8359 120.797 42.9297C119.578 42.9766 118.312 43 117 43C115.688 43.0469 114.234 43.0703 112.641 43.0703H111.445C110.93 43.0703 110.367 43.0469 109.758 43C109.148 43 108.562 43 108 43H106.805C105.352 42.625 104.086 42.0391 103.008 41.2422C101.977 40.3984 101.133 39.4141 100.477 38.2891C99.8203 37.1641 99.3281 35.9453 99 34.6328C98.7188 33.3203 98.5781 31.9844 98.5781 30.625ZM114.328 22.3281C113.719 22.3281 113.016 22.3984 112.219 22.5391C111.469 22.6328 110.672 22.8203 109.828 23.1016C109.031 23.3359 108.234 23.6641 107.438 24.0859C106.641 24.4609 105.938 24.9297 105.328 25.4922C104.719 26.0078 104.203 26.5938 103.781 27.25C103.406 27.9062 103.219 28.6328 103.219 29.4297H106.102C107.133 29.4297 108.188 29.3828 109.266 29.2891C110.344 29.1953 111.398 29.0547 112.43 28.8672C113.461 28.6328 114.352 28.3047 115.102 27.8828C115.898 27.4141 116.531 26.8281 117 26.125C117.516 25.4219 117.773 24.5547 117.773 23.5234V23.1719L117.07 22.4688C116.977 22.4688 116.789 22.4688 116.508 22.4688C116.273 22.4219 116.016 22.3984 115.734 22.3984C115.453 22.3516 115.172 22.3281 114.891 22.3281C114.656 22.3281 114.469 22.3281 114.328 22.3281ZM172.898 27.1797C171.492 27.1797 170.273 27.4844 169.242 28.0938C168.258 28.6562 167.344 29.3828 166.5 30.2734C165.656 31.1172 164.883 32.0547 164.18 33.0859C163.477 34.1172 162.727 35.0781 161.93 35.9688C161.18 36.8125 160.359 37.5391 159.469 38.1484C158.578 38.7109 157.547 38.9922 156.375 38.9922C156.375 38.1016 156.352 37.0938 156.305 35.9688C156.258 34.8438 156.141 33.6953 155.953 32.5234C155.766 31.3516 155.508 30.2031 155.18 29.0781C154.852 27.9062 154.383 26.8984 153.773 26.0547C153.164 25.1641 152.391 24.4609 151.453 23.9453C150.562 23.3828 149.484 23.1016 148.219 23.1016C146.625 23.1016 145.242 23.4766 144.07 24.2266C142.945 24.9766 141.984 25.9375 141.188 27.1094C140.438 28.2812 139.875 29.5938 139.5 31.0469C139.125 32.4531 138.938 33.8594 138.938 35.2656C138.328 35.2656 137.859 35.3359 137.531 35.4766C137.25 35.5703 136.945 35.6875 136.617 35.8281C136.336 35.9688 136.031 36.1094 135.703 36.25C135.422 36.3906 135 36.4609 134.438 36.4609C134.438 35.2891 134.344 34.1406 134.156 33.0156C133.969 31.8438 133.781 30.6953 133.594 29.5703C133.406 28.4453 133.219 27.3203 133.031 26.1953C132.891 25.0703 132.82 23.9453 132.82 22.8203V22.3281C132.82 22.0938 132.82 21.8594 132.82 21.625C132.867 21.3438 132.891 21.1094 132.891 20.9219V20.3594C133.031 19.9844 133.219 19.7734 133.453 19.7266C133.688 19.6797 133.945 19.6562 134.227 19.6562C134.836 19.6562 135.305 19.8906 135.633 20.3594C135.961 20.8281 136.219 21.3906 136.406 22.0469C136.594 22.6562 136.711 23.2891 136.758 23.9453C136.852 24.5547 136.922 24.9766 136.969 25.2109H137.672C139.172 23.1484 140.906 21.6016 142.875 20.5703C144.891 19.5391 147.141 19.0234 149.625 19.0234C151.312 19.0234 152.719 19.3984 153.844 20.1484C155.016 20.8984 156 21.8359 156.797 22.9609C157.594 24.0859 158.25 25.3516 158.766 26.7578C159.281 28.1172 159.773 29.4297 160.242 30.6953H160.945C161.977 29.7578 163.031 28.8203 164.109 27.8828C165.234 26.9453 166.359 26.1484 167.484 25.4922C168.656 24.7891 169.875 24.2266 171.141 23.8047C172.453 23.3359 173.883 23.1016 175.43 23.1016C176.555 23.1016 177.586 23.4766 178.523 24.2266C179.508 24.9297 180.375 25.8672 181.125 27.0391C181.922 28.2109 182.602 29.5234 183.164 30.9766C183.727 32.3828 184.195 33.8359 184.57 35.3359C184.945 36.8359 185.227 38.2656 185.414 39.625C185.602 40.9844 185.695 42.1797 185.695 43.2109C183.961 43.2109 182.695 42.8125 181.898 42.0156C181.102 41.2188 180.516 40.2344 180.141 39.0625C179.766 37.8438 179.508 36.5547 179.367 35.1953C179.227 33.7891 178.969 32.5 178.594 31.3281C178.219 30.1562 177.609 29.1719 176.766 28.375C175.922 27.5781 174.633 27.1797 172.898 27.1797ZM210.586 36.8125C209.367 36.8125 208.148 37.1172 206.93 37.7266C205.758 38.2891 204.539 38.9453 203.273 39.6953C202.008 40.4453 200.695 41.125 199.336 41.7344C197.977 42.2969 196.594 42.5781 195.188 42.5781C195 42.5781 194.719 42.5781 194.344 42.5781C193.969 42.5312 193.547 42.5078 193.078 42.5078C192.656 42.4609 192.258 42.4375 191.883 42.4375C191.508 42.4375 191.25 42.4141 191.109 42.3672C190.219 41.8516 189.492 41.2422 188.93 40.5391C188.414 39.8359 187.992 39.0859 187.664 38.2891C187.383 37.4453 187.172 36.5781 187.031 35.6875C186.891 34.7969 186.82 33.9062 186.82 33.0156V31.0469C186.82 30.2031 186.844 29.2891 186.891 28.3047C186.984 27.3203 187.078 26.3125 187.172 25.2812C187.312 24.25 187.5 23.3125 187.734 22.4688C187.969 21.5781 188.297 20.8281 188.719 20.2188C189.141 19.6094 189.703 19.2109 190.406 19.0234C190.688 18.9297 190.969 19 191.25 19.2344C191.531 19.4688 191.742 19.75 191.883 20.0781C192.07 20.3594 192.211 20.6875 192.305 21.0625C192.398 21.3906 192.445 21.625 192.445 21.7656C192.445 21.9062 192.375 22.2109 192.234 22.6797C192.094 23.1484 191.93 23.6641 191.742 24.2266C191.602 24.7422 191.461 25.2344 191.32 25.7031C191.18 26.1719 191.109 26.4531 191.109 26.5469C191.109 26.5938 191.086 26.8047 191.039 27.1797C191.039 27.5078 191.016 27.8828 190.969 28.3047C190.969 28.7266 190.969 29.1953 190.969 29.7109C190.969 30.1797 190.969 30.5547 190.969 30.8359C190.969 31.4453 190.945 32.1484 190.898 32.9453C190.852 33.6953 190.875 34.4453 190.969 35.1953C191.109 35.9453 191.32 36.6484 191.602 37.3047C191.883 37.9609 192.398 38.4766 193.148 38.8516C193.195 38.8516 193.336 38.875 193.57 38.9219C193.852 38.9219 194.133 38.9219 194.414 38.9219C194.742 38.9219 195.023 38.9453 195.258 38.9922C195.539 38.9922 195.727 38.9922 195.82 38.9922C198.352 38.9922 200.742 38.4297 202.992 37.3047C205.242 36.1797 207.211 34.6562 208.898 32.7344C208.852 32.4531 208.805 31.9141 208.758 31.1172C208.758 30.3203 208.758 29.5 208.758 28.6562C208.758 27.7656 208.758 26.9453 208.758 26.1953C208.805 25.3984 208.852 24.8359 208.898 24.5078C208.898 24.2266 208.945 23.9453 209.039 23.6641C209.133 23.3359 209.25 23.0312 209.391 22.75C209.531 22.4688 209.719 22.2344 209.953 22.0469C210.234 21.8594 210.539 21.7656 210.867 21.7656C211.57 21.7656 212.062 22.0234 212.344 22.5391C212.625 23.0547 212.812 23.7344 212.906 24.5781C213.047 25.4219 213.141 26.4062 213.188 27.5312C213.281 28.6094 213.445 29.7109 213.68 30.8359C213.914 31.9609 214.312 33.0859 214.875 34.2109C215.438 35.2891 216.258 36.2734 217.336 37.1641C218.414 38.0078 219.82 38.7344 221.555 39.3438C223.289 39.9062 225.469 40.2109 228.094 40.2578C228.094 40.3516 228.094 40.4688 228.094 40.6094C228.094 40.75 228.094 40.8672 228.094 40.9609C228.094 41.6641 227.789 42.1797 227.18 42.5078C226.57 42.7891 225.82 42.9766 224.93 43.0703C224.086 43.1641 223.242 43.1875 222.398 43.1406C221.555 43.0938 220.922 43.0703 220.5 43.0703C219.094 43.0703 217.828 42.7422 216.703 42.0859C215.578 41.4297 214.57 40.7266 213.68 39.9766C212.789 39.1797 212.062 38.4531 211.5 37.7969C210.984 37.1406 210.68 36.8125 210.586 36.8125ZM236.883 38.7109V37.2344C236.883 36.625 236.93 36.0391 237.023 35.4766C237.117 34.9141 237.305 34.4219 237.586 34C237.867 33.5781 238.266 33.3672 238.781 33.3672V33.4375H238.992L240.398 38.8516C240.398 39.0391 240.492 39.1797 240.68 39.2734C240.867 39.3672 241.055 39.4609 241.242 39.5547C241.477 39.6016 241.688 39.625 241.875 39.625C242.109 39.625 242.297 39.625 242.438 39.625C242.531 39.625 242.648 39.625 242.789 39.625C242.977 39.5781 243.094 39.5547 243.141 39.5547C243.422 39.5078 243.961 39.3906 244.758 39.2031C245.555 38.9688 246.375 38.7578 247.219 38.5703C248.109 38.3828 248.93 38.1953 249.68 38.0078C250.477 37.7734 251.039 37.6328 251.367 37.5859C251.602 37.2109 251.953 36.8828 252.422 36.6016C252.891 36.2734 253.359 35.9688 253.828 35.6875C254.297 35.4062 254.695 35.1016 255.023 34.7734C255.352 34.4453 255.516 34.0234 255.516 33.5078C255.516 32.3359 255.211 31.3984 254.602 30.6953C254.039 29.9922 253.289 29.4766 252.352 29.1484C251.461 28.7734 250.5 28.5156 249.469 28.375C248.438 28.2344 247.453 28.0938 246.516 27.9531C246.141 27.9062 245.531 27.8359 244.688 27.7422C243.891 27.6016 242.977 27.4609 241.945 27.3203C240.914 27.1797 239.836 27.0391 238.711 26.8984C237.586 26.7109 236.484 26.5703 235.406 26.4766C234.375 26.3359 233.438 26.2188 232.594 26.125C231.797 26.0312 231.211 25.9609 230.836 25.9141C230.555 25.7266 230.25 25.3984 229.922 24.9297C229.594 24.4609 229.43 24.0859 229.43 23.8047C229.43 23.0078 229.852 22.2812 230.695 21.625C231.586 20.9219 232.688 20.2891 234 19.7266C235.312 19.1641 236.789 18.6719 238.43 18.25C240.117 17.8281 241.758 17.4531 243.352 17.125C244.992 16.7969 246.492 16.5625 247.852 16.4219C249.258 16.2812 250.336 16.2109 251.086 16.2109C251.648 16.2109 252.164 16.3984 252.633 16.7734C253.148 17.1484 253.406 17.6875 253.406 18.3906C253.406 18.9531 253.242 19.375 252.914 19.6562C252.633 19.8906 252.258 20.0547 251.789 20.1484C251.367 20.1953 250.922 20.2422 250.453 20.2891C250.031 20.2891 249.633 20.3125 249.258 20.3594C248.508 20.5 247.547 20.6875 246.375 20.9219C245.25 21.1562 244.125 21.3906 243 21.625C241.875 21.8594 240.938 22.0469 240.188 22.1875L238.992 22.4688V23.2422C239.883 23.2422 241.008 23.2656 242.367 23.3125C243.727 23.3594 245.18 23.4766 246.727 23.6641C248.273 23.8516 249.797 24.1562 251.297 24.5781C252.844 24.9531 254.227 25.4922 255.445 26.1953C256.664 26.8516 257.648 27.6953 258.398 28.7266C259.195 29.7109 259.594 30.9297 259.594 32.3828C259.594 34.3516 259.055 36.0156 257.977 37.375C256.898 38.7344 255.539 39.8359 253.898 40.6797C252.258 41.5234 250.477 42.1328 248.555 42.5078C246.633 42.8828 244.852 43.0703 243.211 43.0703C242.555 43.0703 241.852 43.0234 241.102 42.9297C240.352 42.7891 239.648 42.5547 238.992 42.2266C238.383 41.8984 237.867 41.4531 237.445 40.8906C237.07 40.3281 236.883 39.6016 236.883 38.7109Z" fill="url(#paint0_linear)"/>
<defs>
<linearGradient id="paint0_linear" x1="94.3351" y1="-20.5185" x2="102.574" y2="58.0523" gradientUnits="userSpaceOnUse">
<stop stop-color="#0E41C5"/>
<stop offset="1" stop-color="#469ECF"/>
</linearGradient>
</defs>
</svg>
